<svg height='100px' width='100px'  fill="#000000" xmlns="http://www.w3.org/2000/svg" xmlns:xlink="http://www.w3.org/1999/xlink" version="1.1" x="0px" y="0px" viewBox="0 0 32 32" enable-background="new 0 0 32 32" xml:space="preserve"><g display="none"><rect x="-382" y="-91.5" display="inline" fill="#000000" width="430" height="210.5"></rect></g><g display="none"><g display="inline"><path d="M2.622,16.065H29.38c1.444,0,2.62-1.197,2.62-2.669V5.577c0-1.471-1.176-2.668-2.62-2.668H2.622    C1.176,2.909,0,4.106,0,5.577v7.819C0,14.868,1.176,16.065,2.622,16.065z M1,5.577c0-0.92,0.728-1.668,1.622-1.668H29.38    c0.894,0,1.62,0.748,1.62,1.668v7.819c0,0.92-0.727,1.669-1.62,1.669H2.622C1.728,15.065,1,14.316,1,13.396V5.577z"></path><polygon points="15.5,17.943 15.5,27.15 12.114,23.688 11.399,24.387 16,29.091 20.601,24.387 19.886,23.688 16.5,27.15     16.5,17.943   "></polygon><rect x="5.292" y="6.836" width="21.416" height="1"></rect><rect x="5.292" y="10.963" width="21.416" height="1"></rect></g></g><g display="none"><g display="inline"><path d="M0.131,6.532c-0.07,1.972,0,3.958,0,5.931c0,1.732,0.266,3.132,2.257,3.461c0.004,0.001,0.011-0.001,0.015,0    c0.053,0.013,0.121,0.021,0.211,0.021c5.856,0,11.711,0,17.567,0c2.742,0,5.502,0.094,8.243,0c2.406-0.083,3.261-1.279,3.261-3.62    c0-2.087,1.054-7.649-1.511-8.621c-1.459-0.553-3.584-0.159-5.091-0.159c-6.966,0-13.933,0-20.899,0    C1.98,3.545,0.225,3.903,0.131,6.532z M5.048,3.964c6.151,0,12.302,0,18.453,0c1.67,0,3.739-0.336,5.384,0    c2.777,0.568,1.809,5.856,1.809,7.912c0,1.306,0.317,3.116-1.539,3.65c-0.514,0.148-1.285,0-1.815,0c-2.714,0-5.427,0-8.141,0    c-5.406,0-10.811,0-16.217,0c-2.816-0.569-2.026-6.714-1.862-8.839C1.344,3.824,2.933,3.964,5.048,3.964z"></path><path d="M15.42,17.974c0,3.093,0,6.187,0,9.28c-1.076-1.1-2.151-2.2-3.227-3.299c-0.207-0.211-1.121,0.07-0.934,0.261    c1.394,1.426,2.789,2.851,4.183,4.277c0.099,0.101,0.296,0.113,0.487,0.08c0.237,0.038,0.469,0.012,0.469-0.105    c0-0.041,0-0.082,0-0.123c1.379-1.41,2.758-2.82,4.137-4.229c0.255-0.261-0.696-0.252-0.885-0.059    c-1.084,1.108-2.168,2.216-3.252,3.325c0-3.065,0-6.13,0-9.195C16.397,17.869,15.42,17.735,15.42,17.974z"></path><path d="M5.457,7.834c7.038,0,14.076,0,21.114,0c0.679,0,0.223-0.418-0.212-0.418c-7.038,0-14.076,0-21.114,0    C4.566,7.416,5.022,7.834,5.457,7.834z"></path><path d="M5.549,11.926c7.038,0,14.076,0,21.114,0c0.645,0-0.087-0.466-0.396-0.466c-7.038,0-14.076,0-21.114,0    C4.508,11.46,5.239,11.926,5.549,11.926z"></path></g></g><g><g><path d="M28.948,2.744H3.054C1.37,2.744,0,4.131,0,5.836v7.542c0,1.705,1.37,3.093,3.054,3.093h25.895    c1.683,0,3.052-1.388,3.052-3.093V5.836C32,4.131,30.631,2.744,28.948,2.744z M30,13.378c0,0.603-0.472,1.093-1.052,1.093H3.054    C2.473,14.471,2,13.98,2,13.378V5.836c0-0.602,0.473-1.092,1.054-1.092h25.895c0.58,0,1.052,0.49,1.052,1.092V13.378z"></path><polygon points="15,17.765 15,25.38 12.608,22.941 11.181,24.342 16,29.257 20.819,24.342 19.392,22.941 17,25.38 17,17.765   "></polygon><rect x="5.638" y="6.532" width="20.725" height="2"></rect><rect x="5.638" y="10.514" width="20.725" height="2"></rect></g></g><g display="none"><g display="inline"><path d="M31.5,13.396V5.578c0-1.198-0.949-2.169-2.12-2.169H2.622C1.453,3.409,0.5,4.38,0.5,5.578v7.819    c0,1.196,0.953,2.169,2.122,2.169H29.38C30.551,15.565,31.5,14.594,31.5,13.396z M1,13.396V5.578c0-0.92,0.728-1.669,1.622-1.669    H29.38c0.894,0,1.62,0.749,1.62,1.669v7.819c0,0.92-0.727,1.669-1.62,1.669H2.622C1.728,15.065,1,14.317,1,13.396z"></path><polygon points="15.75,17.943 15.75,27.763 11.936,23.862 11.578,24.212 16,28.733 20.422,24.212 20.064,23.862 16.25,27.763     16.25,17.943   "></polygon><rect x="5.292" y="7.086" width="21.416" height="0.5"></rect><rect x="5.292" y="11.213" width="21.416" height="0.5"></rect></g></g></svg>