<svg id="Capa_1" enable-background="new 0 0 512.004 512.004" height="512" viewBox="0 0 512.004 512.004" width="512" xmlns="http://www.w3.org/2000/svg"><g><path d="m509.55 296.201-26.592-44.741c-3.132-5.269-8.885-8.542-15.014-8.542h-5.616c1.576-14.484-3.42-29.126-13.915-39.624-6.342-6.341-9.834-14.773-9.835-23.743-.002-19.717-11.773-37.334-29.988-44.881-8.286-3.433-14.739-9.887-18.173-18.173-5.879-14.187-18.239-24.725-32.949-28.473l1.155-7.105c.858-5.283-1.615-10.367-6.303-12.951-4.687-2.584-10.306-1.965-14.317 1.583l-12.035 10.645c-1.481-1.063-2.885-2.231-4.176-3.521-10.907-10.905-26.516-15.923-41.628-13.653l-13.678-21.073c-2.314-3.566-6.233-5.695-10.485-5.695 0 0 0 0-.001 0-4.251 0-8.17 2.129-10.485 5.694l-13.677 21.07c-15.103-2.263-30.745 2.774-41.63 13.657-1.291 1.291-2.695 2.459-4.176 3.521l-12.035-10.645c-4.01-3.546-9.63-4.167-14.316-1.583-4.688 2.584-7.162 7.668-6.303 12.952l1.155 7.107c-14.703 3.751-27.083 14.315-32.949 28.471-3.433 8.286-9.887 14.74-18.172 18.173-18.215 7.547-29.987 25.164-29.989 44.881-.001 8.969-3.494 17.401-9.834 23.743-10.492 10.494-15.49 25.14-13.915 39.624h-5.564c-6.186 0-11.965 3.319-15.084 8.662l-4.832 8.278c-2.088 3.577-.88 8.17 2.697 10.258 1.188.694 2.489 1.024 3.773 1.024 2.579 0 5.09-1.333 6.484-3.721l4.832-8.278c.44-.754 1.256-1.223 2.129-1.223h99.283l-.016.577c-.106 3.846 1.688 7.492 4.801 9.753 3.111 2.262 7.135 2.843 10.76 1.553l11.874-4.222 11.873 4.222c1.272.453 2.594.675 3.908.675 2.429 0 4.832-.76 6.852-2.227 3.113-2.261 4.908-5.907 4.803-9.753l-.016-.578h30.35l-.016.577c-.106 3.846 1.688 7.492 4.801 9.753 3.114 2.262 7.137 2.843 10.761 1.553l11.873-4.222 11.873 4.222c1.272.453 2.594.675 3.908.675 2.429 0 4.832-.76 6.852-2.227 3.113-2.261 4.908-5.907 4.803-9.753l-.016-.578h30.35l-.016.578c-.105 3.846 1.689 7.492 4.802 9.753s7.136 2.841 10.76 1.553l11.873-4.222 11.873 4.222c1.272.453 2.594.675 3.908.675 2.429 0 4.832-.76 6.852-2.227 3.113-2.261 4.908-5.907 4.803-9.753l-.016-.578h99.335c.865 0 1.678.462 2.119 1.206l26.592 44.741c.462.776.462 1.742 0 2.519l-26.592 44.74c-.441.744-1.254 1.206-2.119 1.206h-120.695c-4.143 0-7.5 3.358-7.5 7.5s3.357 7.5 7.5 7.5h31.976c-.549.272-1.103.537-1.674.773-10.272 4.256-18.274 12.258-22.532 22.532-4.139 9.989-13.8 16.444-24.612 16.445-11.12.001-21.575 4.332-29.439 12.195-7.646 7.644-19.042 9.911-29.032 5.775-10.276-4.255-21.592-4.255-31.865 0-9.992 4.137-21.387 1.87-29.033-5.774-7.864-7.863-18.319-12.193-29.439-12.195-10.813-.001-20.474-6.457-24.612-16.446-4.257-10.273-12.259-18.275-22.533-22.532-.573-.237-1.13-.5-1.681-.773h180.477c4.143 0 7.5-3.358 7.5-7.5s-3.357-7.5-7.5-7.5h-269.245c-.857 0-1.665-.456-2.109-1.188l-26.538-43.831c-.468-.773-.476-1.739-.021-2.52l4.671-8.002c2.088-3.577.881-8.17-2.696-10.258-3.577-2.089-8.17-.88-10.258 2.696l-4.672 8.003c-3.228 5.531-3.172 12.371.145 17.849l26.538 43.831c3.145 5.193 8.869 8.419 14.94 8.419h30.22c2.953 16.022 13.943 29.856 29.188 36.172 8.286 3.433 14.74 9.887 18.173 18.172 7.547 18.215 25.164 29.987 44.881 29.989 8.969.001 17.401 3.494 23.743 9.834 9.317 9.315 21.686 14.252 34.304 14.251 6.265 0 12.593-1.218 18.638-3.721 8.286-3.431 17.413-3.431 25.7 0 18.217 7.542 38.998 3.409 52.941-10.531 6.343-6.341 14.774-9.834 23.743-9.835 19.717-.002 37.334-11.773 44.882-29.989 3.434-8.286 9.887-14.74 18.173-18.173 15.415-6.387 26.277-19.996 29.201-36.172h30.153c6.129 0 11.882-3.273 15.014-8.542l26.592-44.74c3.27-5.502 3.27-12.341-.001-17.845zm-132.989-173.961c4.967 11.986 14.303 21.322 26.288 26.288 12.592 5.217 20.729 17.396 20.73 31.025.001 12.976 5.054 25.174 14.228 34.348 7.648 7.651 11.078 18.485 9.405 29.018h-18.228c-.015-9.516-3.291-18.824-9.413-26.308-2.622-3.207-7.349-3.677-10.554-1.056-3.206 2.623-3.679 7.348-1.056 10.554 3.913 4.784 6.009 10.73 6.024 16.81h-43.413l5.391-7.007c2.346-3.049 3.037-7.054 1.848-10.713-1.188-3.659-4.102-6.493-7.792-7.581l-12.088-3.563-7.123-10.395c-2.176-3.173-5.771-5.068-9.617-5.068-3.848 0-7.443 1.895-9.618 5.068l-7.124 10.395-12.087 3.563c-3.69 1.088-6.604 3.921-7.793 7.581s-.498 7.664 1.848 10.714l5.392 7.006h-26.424l5.392-7.007c2.346-3.049 3.037-7.054 1.848-10.713s-4.103-6.493-7.792-7.58l-12.088-3.563-7.124-10.395c-2.175-3.173-5.771-5.068-9.618-5.068s-7.442 1.895-9.618 5.068l-7.124 10.395-12.087 3.563c-3.69 1.087-6.603 3.921-7.792 7.58s-.499 7.664 1.848 10.714l5.391 7.006h-26.424l5.391-7.007c2.346-3.049 3.037-7.055 1.848-10.714s-4.102-6.492-7.792-7.58l-12.088-3.563-7.124-10.395c-2.175-3.173-5.77-5.068-9.617-5.068s-7.442 1.895-9.618 5.068l-7.124 10.395-12.087 3.563c-3.69 1.087-6.604 3.921-7.792 7.58-1.189 3.659-.499 7.664 1.848 10.714l5.391 7.006h-43.415c.015-6.985 2.777-13.778 7.795-18.797 7.863-7.864 12.194-18.319 12.195-29.439.001-10.813 6.456-20.474 16.445-24.612 10.274-4.256 18.276-12.259 22.533-22.532 1.357-3.276 3.351-6.197 5.815-8.653l3.679 22.64c1.778 10.946 11.119 18.891 22.208 18.891h134.628c11.09 0 20.43-7.945 22.209-18.891l3.679-22.641c2.464 2.457 4.458 5.377 5.815 8.653 4.258 10.274 12.26 18.276 22.532 22.532 8.688 3.6 14.888 11.628 16.181 20.952.521 3.754 3.733 6.471 7.419 6.471.343 0 .69-.023 1.039-.072 4.104-.569 6.969-4.356 6.399-8.459-2.02-14.573-11.713-27.122-25.296-32.75-6.573-2.723-11.693-7.843-14.417-14.417-3.419-8.255-9.361-15.125-16.943-19.702l3.119-19.192c9.608 2.858 17.614 9.943 21.509 19.34zm-65.374-34.958c1.066 1.066 2.196 2.061 3.355 3.022l-10.588 9.365-14.361-22.124c8.03.535 15.78 3.925 21.594 9.737zm-110.371 0c5.801-5.799 13.559-9.191 21.591-9.731l-14.357 22.118-10.589-9.365c1.159-.961 2.289-1.956 3.355-3.022zm3.817 29.389c1.635 1.446 3.815 2.109 5.981 1.813 2.163-.294 4.09-1.517 5.278-3.348l40.109-61.792 40.109 61.792c1.188 1.831 3.115 3.053 5.278 3.348 2.161.296 4.346-.367 5.981-1.813l35.324-31.243-11.977 73.691c-.593 3.648-3.706 6.296-7.402 6.296h-134.626c-3.697 0-6.81-2.648-7.403-6.297l-11.975-73.69zm-130.436 97.23c9.173-9.175 14.226-21.373 14.227-34.347.001-13.63 8.139-25.808 20.731-31.025 11.986-4.966 21.322-14.302 26.288-26.289 3.886-9.378 11.904-16.483 21.508-19.342l3.12 19.196c-7.582 4.576-13.523 11.447-16.944 19.702-2.724 6.573-7.843 11.693-14.417 14.417-15.613 6.469-25.702 21.568-25.704 38.468-.001 7.115-2.771 13.804-7.802 18.836-7.849 7.851-12.165 18.477-12.183 29.403h-18.228c-1.672-10.534 1.758-21.371 9.404-29.019zm108.923 40.136-9.794-3.482c-.813-.289-1.663-.434-2.513-.434s-1.7.145-2.513.434l-9.794 3.482.286-10.391c.047-1.725-.501-3.413-1.553-4.78l-6.339-8.238 9.97-2.939c1.655-.488 3.091-1.531 4.066-2.954l5.876-8.574 5.876 8.574c.975 1.423 2.411 2.466 4.066 2.954l9.971 2.939-6.339 8.238c-1.052 1.367-1.6 3.056-1.553 4.78zm85.189 0-9.794-3.482c-.813-.289-1.663-.434-2.513-.434s-1.7.145-2.513.434l-9.793 3.482.286-10.391c.047-1.724-.501-3.413-1.553-4.78l-6.339-8.238 9.97-2.939c1.655-.488 3.091-1.531 4.066-2.954l5.876-8.574 5.876 8.574c.976 1.423 2.411 2.466 4.065 2.954l9.971 2.939-6.339 8.238c-1.052 1.367-1.601 3.056-1.553 4.78zm85.188 0-9.795-3.482c-.813-.289-1.663-.434-2.513-.434s-1.7.145-2.513.434l-9.794 3.482.286-10.391c.048-1.724-.501-3.413-1.553-4.78l-6.339-8.238 9.971-2.939c1.654-.488 3.09-1.531 4.065-2.954l5.876-8.574 5.876 8.574c.975 1.423 2.411 2.466 4.066 2.954l9.971 2.939-6.339 8.238c-1.052 1.367-1.601 3.055-1.553 4.779zm49.352 135.608c-11.985 4.966-21.321 14.302-26.288 26.288-5.218 12.592-17.396 20.729-31.026 20.731-12.974.001-25.171 5.054-34.347 14.227-9.638 9.636-24.004 12.494-36.598 7.28-11.985-4.965-25.191-4.965-37.177 0-12.594 5.213-26.958 2.357-36.597-7.28-9.175-9.173-21.373-14.226-34.347-14.227-13.63-.001-25.808-8.139-31.025-20.731-4.966-11.986-14.302-21.322-26.289-26.288-9.676-4.009-16.867-12.398-19.561-22.315h20.946c4.55 6.522 10.778 11.568 18.171 14.631 6.573 2.724 11.693 7.843 14.417 14.416 6.468 15.613 21.568 25.702 38.468 25.704 7.115.001 13.804 2.771 18.836 7.802 11.951 11.948 29.762 15.491 45.377 9.026 6.573-2.722 13.814-2.722 20.388 0 5.182 2.145 10.603 3.188 15.974 3.188 10.814 0 21.417-4.231 29.402-12.215 5.032-5.03 11.722-7.801 18.836-7.802 16.899-.002 31.999-10.091 38.468-25.704 2.724-6.573 7.844-11.693 14.417-14.417 7.308-3.028 13.668-8.162 18.199-14.631h20.926c-2.664 9.987-9.781 18.261-19.57 22.317z"/><path d="m232.521 382.365c-4.142 0-7.5 3.358-7.5 7.5s3.358 7.5 7.5 7.5h46.962c4.143 0 7.5-3.358 7.5-7.5s-3.357-7.5-7.5-7.5z"/><path d="m246.079 147.5c2.385 3.113 6.001 4.898 9.923 4.898s7.539-1.785 9.923-4.898l14.688-19.176c3.432-4.477 3.432-10.729.002-15.205l-14.69-19.177c-2.385-3.113-6.001-4.898-9.923-4.898-3.921 0-7.538 1.785-9.923 4.898l-14.691 19.178c-3.428 4.476-3.428 10.727 0 15.203zm9.923-41.844 11.542 15.066-11.542 15.066-11.541-15.066z"/><path d="m318.325 330.84v-46.615c0-4.142-3.357-7.5-7.5-7.5s-7.5 3.358-7.5 7.5v46.615c0 4.142 3.357 7.5 7.5 7.5s7.5-3.358 7.5-7.5z"/><path d="m93.123 338.34c4.142 0 7.5-3.358 7.5-7.5v-12.638h8.036c11.436 0 20.739-9.303 20.739-20.739 0-11.435-9.303-20.738-20.739-20.738h-15.536c-4.142 0-7.5 3.358-7.5 7.5v46.615c0 4.142 3.358 7.5 7.5 7.5zm7.5-46.615h8.036c3.165 0 5.739 2.574 5.739 5.739 0 3.164-2.574 5.738-5.739 5.738h-8.036z"/><path d="m229.966 291.725c4.142 0 7.5-3.358 7.5-7.5s-3.358-7.5-7.5-7.5h-28.775c-4.142 0-7.5 3.358-7.5 7.5v46.615c0 4.142 3.358 7.5 7.5 7.5h28.775c4.142 0 7.5-3.358 7.5-7.5s-3.358-7.5-7.5-7.5h-21.275v-8.308h14.944c4.142 0 7.5-3.358 7.5-7.5s-3.358-7.5-7.5-7.5h-14.944v-8.308h21.275z"/><path d="m180.891 297.064c0-11.215-9.124-20.339-20.339-20.339h-15.405c-4.142 0-7.5 3.358-7.5 7.5v46.615c0 4.142 3.358 7.5 7.5 7.5s7.5-3.358 7.5-7.5v-13.438h6.401l7.514 16.54c1.256 2.765 3.981 4.4 6.833 4.4 1.038 0 2.092-.216 3.098-.674 3.771-1.713 5.439-6.159 3.726-9.93l-6.79-14.946c4.552-3.733 7.462-9.396 7.462-15.728zm-28.243-5.339h7.905c2.944 0 5.339 2.395 5.339 5.339s-2.395 5.339-5.339 5.339h-7.905z"/><path d="m284.783 338.34c4.143 0 7.5-3.358 7.5-7.5v-46.615c0-3.046-1.843-5.79-4.662-6.942-2.822-1.152-6.056-.485-8.19 1.688l-9.035 9.204-9.035-9.204c-2.134-2.174-5.372-2.841-8.19-1.688-2.82 1.153-4.662 3.896-4.662 6.942v46.615c0 4.142 3.358 7.5 7.5 7.5s7.5-3.358 7.5-7.5v-28.269l1.535 1.563c1.41 1.437 3.339 2.246 5.353 2.246 2.013 0 3.941-.809 5.353-2.246l1.535-1.564v28.269c-.002 4.143 3.356 7.501 7.498 7.501z"/><path d="m418.894 338.34c4.143 0 7.5-3.358 7.5-7.5v-46.615c0-3.046-1.843-5.79-4.662-6.942-2.822-1.152-6.058-.485-8.19 1.688l-9.034 9.204-9.035-9.204c-2.135-2.174-5.369-2.841-8.19-1.688-2.819 1.153-4.662 3.896-4.662 6.942v46.615c0 4.142 3.357 7.5 7.5 7.5s7.5-3.358 7.5-7.5v-28.269l1.535 1.564c1.411 1.437 3.34 2.246 5.353 2.246 2.014 0 3.942-.81 5.353-2.246l1.534-1.563v28.268c-.002 4.142 3.355 7.5 7.498 7.5z"/><path d="m336.085 276.725c-4.143 0-7.5 3.358-7.5 7.5v32.228c0 12.069 9.818 21.888 21.887 21.888s21.888-9.819 21.888-21.888v-32.228c0-4.142-3.357-7.5-7.5-7.5s-7.5 3.358-7.5 7.5v32.228c0 3.798-3.09 6.888-6.888 6.888-3.797 0-6.887-3.09-6.887-6.888v-32.228c0-4.142-3.357-7.5-7.5-7.5z"/></g></svg>