<?xml version="1.0" encoding="iso-8859-1"?>
<!-- Generator: Adobe Illustrator 19.0.0, SVG Export Plug-In . SVG Version: 6.00 Build 0)  -->
<svg width="100px" version="1.1" id="Layer_1" xmlns="http://www.w3.org/2000/svg" xmlns:xlink="http://www.w3.org/1999/xlink" x="0px" y="0px"
	 viewBox="0 0 512 512" style="enable-background:new 0 0 512 512;" xml:space="preserve">
<g>
	<path style="fill:#CFF09E;" d="M257.614,195.378L143.666,40.819c-3.473-4.709-10.512-4.709-13.984,0L15.732,195.378
		c-4.228,5.735-0.133,13.841,6.991,13.841h227.897C257.747,209.219,261.842,201.113,257.614,195.378z"/>
	<path style="fill:#CFF09E;" d="M254.386,316.622l113.948,154.559c3.473,4.709,10.512,4.709,13.984,0l113.948-154.559
		c4.228-5.735,0.133-13.841-6.991-13.841H261.378C254.253,302.781,250.158,310.887,254.386,316.622z"/>
</g>
<g>
	<path style="fill:#507C5C;" d="M189.74,275.173h-64.97c-7.743,0-14.019,6.276-14.019,14.019s6.276,14.019,14.019,14.019h63.704
		v88.911H84.873V223.238h165.749c8.616,0,16.383-4.778,20.268-12.469c3.885-7.691,3.122-16.776-1.991-23.711L154.949,32.498
		c-4.262-5.78-11.095-9.23-18.276-9.23c-7.181,0-14.014,3.45-18.276,9.232L4.448,187.058c-5.113,6.935-5.876,16.02-1.991,23.711
		c3.885,7.691,11.651,12.469,20.268,12.469h34.109v170.15c0,14.762,12.01,26.773,26.773,26.773H189.74
		c14.762,0,26.773-12.01,26.773-26.773v-91.442C216.513,287.183,204.503,275.173,189.74,275.173z M136.673,54.96l103.391,140.24
		H33.282L136.673,54.96z"/>
	<path style="fill:#507C5C;" d="M509.542,301.23c-3.885-7.691-11.651-12.469-20.268-12.469h-34.109v-170.15
		c0-14.762-12.01-26.773-26.773-26.773H322.26c-14.762,0-26.773,12.01-26.773,26.773v77.422c0,14.762,12.01,26.773,26.773,26.773
		h64.97c7.743,0,14.019-6.276,14.019-14.019s-6.276-14.019-14.019-14.019h-63.704v-74.89h103.601v168.884H261.378
		c-8.616,0-16.383,4.778-20.268,12.469c-3.885,7.691-3.122,16.776,1.991,23.711l113.948,154.56c4.262,5.78,11.095,9.23,18.276,9.23
		c7.181,0,14.014-3.45,18.276-9.232l113.949-154.559C512.665,318.007,513.427,308.921,509.542,301.23z M375.327,457.04
		L271.936,316.8h206.782L375.327,457.04z"/>
</g>
<g>
</g>
<g>
</g>
<g>
</g>
<g>
</g>
<g>
</g>
<g>
</g>
<g>
</g>
<g>
</g>
<g>
</g>
<g>
</g>
<g>
</g>
<g>
</g>
<g>
</g>
<g>
</g>
<g>
</g>
</svg>
